<?xml version="1.0" encoding="UTF-8" standalone="no"?>
<!-- Created with Inkscape (http://www.inkscape.org/) -->
<svg
   xmlns:dc="http://purl.org/dc/elements/1.1/"
   xmlns:cc="http://web.resource.org/cc/"
   xmlns:rdf="http://www.w3.org/1999/02/22-rdf-syntax-ns#"
   xmlns:svg="http://www.w3.org/2000/svg"
   xmlns="http://www.w3.org/2000/svg"
   xmlns:sodipodi="http://sodipodi.sourceforge.net/DTD/sodipodi-0.dtd"
   xmlns:inkscape="http://www.inkscape.org/namespaces/inkscape"
   version="1.0"
   width="1139.9998"
   height="739.99994"
   id="svg3733"
   sodipodi:version="0.32"
   inkscape:version="0.44"
   sodipodi:docname="cyprus_blank_1.svg"
   sodipodi:docbase="C:\Documents and Settings\Dimitris\My Documents\wiki\images">
  <metadata
     id="metadata1878">
    <rdf:RDF>
      <cc:Work
         rdf:about="">
        <dc:format>image/svg+xml</dc:format>
        <dc:type
           rdf:resource="http://purl.org/dc/dcmitype/StillImage" />
      </cc:Work>
    </rdf:RDF>
  </metadata>
  <sodipodi:namedview
     inkscape:window-height="580"
     inkscape:window-width="853"
     inkscape:pageshadow="2"
     inkscape:pageopacity="0.0"
     guidetolerance="10.0"
     gridtolerance="10.0"
     objecttolerance="10.0"
     borderopacity="1.0"
     bordercolor="#666666"
     pagecolor="#ffffff"
     id="base"
     inkscape:zoom="1.4409691"
     inkscape:cx="939.66542"
     inkscape:cy="627.73957"
     inkscape:window-x="0"
     inkscape:window-y="0"
     inkscape:current-layer="svg3733" />
  <defs
     id="defs3735" />
  <g
     transform="translate(194.2857,-172.3622)"
     id="layer1">
    <path
       d="M 205.49947,855.18028 C 203.20194,854.01769 200.24355,852.05321 198.92529,850.81476 C 197.60702,849.57631 196.18671,848.90465 195.76904,849.32218 C 195.35137,849.73971 192.90975,850.14318 190.34322,850.21877 C 187.7767,850.29436 183.99248,850.80875 181.93386,851.36187 C 179.87524,851.91498 178.4393,851.96563 178.74288,851.47443 C 179.78602,849.78659 176.44428,850.5831 173.81918,852.648 C 170.89232,854.95027 165.70747,855.51199 163.91635,853.72087 C 163.02639,852.83091 163.08455,851.78418 164.16103,849.31736 C 166.35921,844.28013 165.63089,835.28855 162.57686,829.75977 C 161.15549,827.18663 159.58401,824.65383 159.08468,824.13133 C 158.58535,823.60883 158.16992,821.23098 158.1615,820.10348 C 157.69963,821.08387 156.22076,816.17674 153.73223,813.76819 C 151.77675,811.98874 150.17681,810.13792 150.17681,809.65526 C 150.17681,809.1726 147.45144,806.75244 144.12043,804.27713 C 138.45949,800.07042 137.72494,799.80163 132.87043,800.16046 C 127.68437,800.54381 120.90075,801.25849 116.17681,801.91921 C 114.80181,802.11153 111.51275,802.33918 108.86779,802.42511 C 106.22283,802.51103 104.26736,802.91883 104.5223,803.33133 C 104.77724,803.74383 104.0163,804.15625 102.83132,804.24783 C 101.64634,804.3394 98.651814,804.92999 96.176814,805.56025 C 93.701814,806.19052 88.615584,807.13848 84.874084,807.66685 C 81.132584,808.19521 76.182584,809.28557 73.874084,810.08986 C 67.693534,812.24321 65.534974,811.95816 57.830814,807.97125 C 52.290964,805.10438 51.621254,803.18037 46.317664,804.35241 C 43.945734,804.87659 42.445624,805.00776 41.247784,803.91849 C 37.199484,800.23711 36.947764,800.56678 34.176814,799.98925 C 34.176814,800.78699 19.314454,793.78541 15.461494,791.1288 C 9.3820343,786.93702 9.5754843,787.68377 6.5548643,784.47579 C 2.6261743,781.07553 1.4243343,780.58133 -2.9161257,780.58133 C -5.6503357,780.58133 -9.4479657,779.92929 -11.355306,779.13236 C -13.262636,778.33542 -14.823186,777.97143 -14.823186,778.32349 C -14.823186,778.67554 -15.431096,778.13222 -16.174106,777.1161 C -17.292586,775.58648 -18.336686,775.37987 -22.242596,775.91523 C -28.396386,776.7587 -30.520086,774.82689 -40.072286,765.39786 C -44.299886,761.22478 -48.592286,758.58133 -49.610986,758.58133 C -51.400586,758.58133 -53.231686,757.07606 -55.393186,755.23629 C -57.673386,750.11401 -64.457686,751.13344 -65.274186,747.81044 C -65.743786,747.81044 -67.530986,744.64383 -67.675486,739.83133 C -67.910186,732.00836 -68.190586,730.86944 -70.321486,729.08133 C -72.811486,726.992 -73.836086,723.00457 -72.453686,720.78344 C -71.986286,717.0982 -70.225186,716.37502 -71.823386,712.58106 C -72.494286,711.32744 -72.483486,709.81813 -71.790686,707.99596 C -70.924886,705.7187 -71.112086,704.9027 -72.948786,702.94767 C -74.153686,701.66509 -75.870986,700.38355 -76.764986,700.0998 C -77.658986,699.81605 -79.206686,698.20208 -80.204386,696.51319 C -81.771186,693.86076 -82.519586,693.47868 -85.698586,693.70821 C -90.212386,694.03411 -91.822486,693.13119 -91.825586,690.27231 C -91.826886,689.06727 -93.626886,685.43309 -95.825586,682.19636 C -98.024286,678.95963 -99.823186,675.68129 -99.823186,674.91118 C -99.823186,674.14106 -100.54469,672.40985 -101.42649,671.06404 C -102.70459,669.11334 -102.88939,667.2188 -102.33729,661.72198 C -101.57799,654.16038 -102.72539,650.56923 -107.54979,645.40922 C -109.69519,643.11464 -109.96049,642.12567 -109.42769,638.40922 C -109.08649,636.02888 -108.74189,631.06682 -108.66199,627.38242 C -108.56989,623.1382 -108.11479,620.75639 -107.41989,620.88242 C -105.79179,621.17772 -106.56839,616.75672 -108.67709,613.72606 C -109.68919,612.27146 -111.02799,609.57499 -111.65219,607.73391 C -112.27639,605.89284 -114.13869,602.84708 -115.79069,600.96557 C -117.44269,599.08407 -119.05699,596.3154 -119.37799,594.81299 C -119.69899,593.31058 -120.43879,590.95633 -121.02199,589.58133 C -122.51979,586.04998 -122.91659,580.62436 -121.82609,578.58666 C -121.19489,577.40731 -121.35519,576.25733 -122.33019,574.96947 C -124.26099,572.41905 -124.17799,569.63089 -122.10309,567.33809 C -121.15699,566.29269 -120.29359,564.23226 -120.18429,562.75935 C -120.07509,561.28644 -119.94909,559.78785 -119.90439,559.42916 C -119.85979,559.07046 -118.42879,558.29089 -116.72449,557.69678 C -113.50479,556.57436 -110.45669,557.47308 -108.32319,560.17393 C -107.77319,560.87019 -106.19989,561.58418 -104.82689,561.76059 C -102.73109,562.02987 -102.16779,562.85096 -101.31619,566.87853 C -100.49839,570.74642 -99.625886,572.09852 -96.812486,573.85822 C -94.893386,575.05859 -92.450886,576.83735 -91.384586,577.81102 C -90.318386,578.78469 -88.987386,579.58133 -88.426786,579.58133 C -87.866186,579.58133 -85.813586,581.09669 -83.865386,582.9488 C -80.100786,586.52768 -74.251286,589.08298 -73.309886,587.55982 C -72.979886,587.02589 -71.790386,587.02351 -70.395086,587.55399 C -69.098586,588.04692 -67.140286,588.21552 -66.043386,587.92866 C -64.946386,587.6418 -63.746586,587.8963 -63.376986,588.49421 C -62.544386,589.84139 -58.823186,589.93823 -58.823186,588.61271 C -58.823186,588.07998 -58.250386,587.86391 -57.550286,588.13256 C -56.850186,588.40122 -54.069186,587.22067 -51.370386,585.50912 C -48.671586,583.79757 -45.642686,582.23915 -44.639586,582.04596 C -37.510986,577.95639 -30.472886,569.71193 -24.823186,562.79841 C -24.823186,562.16729 -23.438346,560.07367 -21.745756,558.14592 C -19.571756,554.91498 -17.168256,554.17192 -16.503756,547.73801 C -15.605146,539.03726 -12.043606,539.21986 -7.0316757,530.39594 C -5.8508657,527.18269 -6.8059857,527.22452 -4.4792357,524.57621 C -2.3794857,521.02162 1.6970543,518.70396 6.3325343,518.42934 C 8.1718943,518.32038 10.891964,517.635 12.377154,516.90628 C 13.862344,516.17756 16.112344,515.56702 17.377154,515.54953 C 18.641964,515.53203 20.550324,514.85703 21.617944,514.04953 C 22.685564,513.24202 24.575704,512.58133 25.818254,512.58133 C 27.060804,512.58133 28.437294,511.9924 28.877124,511.27261 C 29.962794,509.49587 34.737564,507.76243 40.176814,507.17036 C 42.651814,506.90095 45.807314,506.40121 47.189024,506.05981 C 49.195804,505.56397 50.444574,506.18243 53.395894,509.13375 C 56.295594,512.3746 61.531624,513.46208 65.772904,513.58133 C 72.200664,513.58133 80.488144,515.70275 87.623154,519.17452 C 90.343644,520.49827 93.430064,521.58133 94.481854,521.58133 C 95.533644,521.58133 98.869204,524.05633 101.8942,527.08133 C 106.03273,531.21986 108.1718,532.62033 110.53551,532.73886 C 117.02129,532.84282 117.40038,531.10591 122.12719,535.05567 C 124.90643,536.49287 125.28807,536.4766 126.99322,534.84826 C 128.01086,533.87645 129.48098,532.93514 130.26014,532.75645 C 131.03931,532.57777 132.57681,531.60429 133.67681,530.59316 C 134.77681,529.58203 138.04008,527.98867 140.92852,527.05237 C 146.40874,525.27593 154.17681,519.3509 154.17681,516.94736 C 154.17681,516.18112 154.6037,514.7728 155.12546,513.81776 C 158.694,507.28586 163.11461,495.38174 163.0388,492.50819 C 162.98907,490.62342 163.44978,487.81454 164.0626,486.26623 C 164.67542,484.71793 165.17681,481.90941 165.17681,480.02508 C 165.17681,478.14075 166.3274,473.26719 167.73367,469.19494 C 170.0424,462.50939 170.24187,460.73743 169.78906,450.93609 C 169.51324,444.96597 169.26266,439.49227 169.23219,438.77231 C 167.29704,434.36327 171.28449,432.17533 165.68581,422.59873 C 164.10418,419.89334 163.61315,414.3938 162.82226,398.08133 C 162.68042,395.15587 162.79274,395.08133 167.34255,395.08133 C 169.9087,395.08133 171.8331,395.25693 171.61899,395.47156 C 170.86598,396.22636 178.19812,399.58133 180.60071,399.58133 C 182.08478,399.58133 183.9366,400.71312 185.35433,402.48663 C 188.33808,406.21915 200.4,412.5795 204.50986,412.58749 C 206.25168,412.59088 208.96575,413.26588 210.54112,414.08749 C 212.11649,414.9091 214.20255,415.58133 215.17681,415.58133 C 216.15107,415.58133 218.23713,416.26033 219.8125,417.09021 C 223.66348,419.11886 234.20284,418.79426 241.08336,416.4351 C 247.45329,414.25101 253.16954,414.13213 258.61069,416.0706 C 265.85927,418.73185 263.55473,420.40681 279.85064,420.20244 C 293.4398,419.65624 286.04725,419.55177 290.89369,419.25631 C 291.45465,419.22211 294.43881,419.80668 297.70937,421.13593 C 302.02903,422.89157 305.57374,423.55491 310.66633,423.56065 C 322.76153,423.57426 329.95801,424.25294 330.58785,424.72655 C 332.27433,425.9947 333.26691,426.17834 337.83115,426.12786 C 340.66597,426.09651 342.12142,426.64696 342.55336,426.7808 C 357.10927,431.29116 367.09708,427.75731 371.49463,429.94076 C 375.42038,431.88996 403.51137,431.54301 406.71111,429.83057 C 407.79224,429.25196 409.12681,428.73195 409.67681,428.67499 C 410.22681,428.61802 412.02681,428.15912 413.67681,427.65519 C 415.32681,427.15126 419.28868,426.61889 422.42681,426.08819 C 431.76913,424.50828 429.93658,425.18641 432.27585,424.03011 C 434.09399,423.08992 436.4425,423.10928 438.45467,423.07422 C 447.10155,422.92355 455.06285,417.84589 455.76475,417.72362 C 463.93906,416.29966 457.82693,416.54793 467.17681,416.5685 C 474.55976,416.58473 485.17681,414.15221 485.17681,412.44444 C 487.43721,411.38965 490.31711,410.41661 492.76204,408.37235 C 494.7722,406.60741 496.92536,405.08663 497.54684,404.99283 C 498.60405,404.83327 509.07939,398.68874 510.17681,397.58446 C 510.45181,397.30774 511.17549,396.9901 511.78498,396.87861 C 517.22095,394.77919 521.47837,392.86935 527.4729,389.75056 C 531.03926,387.89508 544.60952,384.87605 558.45413,384.66075 C 566.23751,384.53971 573.24814,384.08116 574.0333,383.64176 C 574.81847,383.20236 576.30609,383.06388 577.33914,383.33403 C 578.42073,383.61687 580.92746,382.64013 583.24911,381.03123 C 586.07223,379.0748 588.91397,378.10182 592.72881,377.78546 C 595.72521,377.53698 598.17681,376.97954 598.17681,376.54671 C 598.17681,375.29566 606.55014,371.58133 609.37041,371.58133 C 610.77959,371.58133 613.54806,370.90633 615.52257,370.08133 C 617.49707,369.25633 620.41634,368.58133 622.00983,368.58133 C 623.60333,368.58133 625.98028,367.77591 627.29195,366.79151 C 628.60362,365.80711 630.80181,364.42704 632.17681,363.72469 C 637.35694,361.07868 640.89435,358.94867 643.45926,356.93111 C 644.91577,355.78542 647.84715,354.56985 649.97343,354.22984 C 652.09971,353.88984 654.65046,352.71544 655.64175,351.62007 C 656.63304,350.5247 657.82589,349.60659 658.217,350.006 C 665.95929,347.44319 667.08796,343.64819 674.33103,340.79518 C 676.79284,339.73596 680.12856,338.61537 681.90292,338.60329 C 684.55638,338.58523 685.44391,337.97215 686.90292,335.14948 C 689.20459,330.69656 702.89927,315.79617 706.33207,314.00975 C 710.33507,311.92659 712.30839,309.57125 711.68808,307.61684 C 710.10413,302.62625 716.39562,299.88832 721.23157,303.4637 C 724.20628,305.66299 725.27587,305.65704 735.93064,303.38192 C 739.9639,302.52068 741.7582,301.50781 743.6543,299.02194 C 745.8214,296.18068 746.8934,295.69659 752.4005,295.07212 C 755.8525,294.68069 760.1393,293.75809 761.9268,293.02191 C 763.7143,292.28572 765.1768,291.93204 765.1768,292.23595 C 765.1768,292.53986 766.7675,291.3919 768.7116,289.68492 C 770.6557,287.97795 772.8273,286.58133 773.5373,286.58133 C 774.2473,286.58133 775.9191,285.40209 777.2525,283.96081 C 778.5859,282.51952 781.5409,280.53124 783.8193,279.54241 C 787.3728,278.00017 788.1963,277.03873 789.6106,272.78054 C 791.4802,267.15169 793.0613,265.44776 798.4988,263.20187 C 800.6009,262.33363 801.28434,260.98474 801.7928,260.76895 C 803.37327,260.09821 803.9901,259.59586 808.2644,260.79452 C 812.626,262.01765 816.5717,260.29196 821.3039,255.09156 C 825.0236,251.00388 828.1951,249.83383 838.8483,248.6188 C 843.91711,248.04068 848.48781,246.82802 851.36601,245.29763 C 853.85951,243.97182 856.81431,242.64789 857.93211,242.35556 C 859.18521,242.02789 860.22161,240.65382 860.63481,238.77247 C 861.32651,235.62349 861.49561,235.58106 867.37371,237.08257 C 869.75381,237.69056 870.23471,237.37858 871.46881,234.4264 C 872.23781,232.58662 873.55971,230.50689 874.40641,229.80478 C 878.34261,226.54059 899.27951,223.32039 900.78001,225.74838 C 901.12781,226.31108 900.36171,228.19119 899.07751,229.92641 C 897.32771,232.29084 896.65601,234.70997 896.39661,239.58133 C 896.20631,243.15633 895.60261,247.25082 895.05501,248.68019 C 894.11761,251.12705 887.78571,255.58133 885.24481,255.58133 C 878.61871,257.59091 870.48691,262.15522 865.36111,264.39649 C 862.56761,265.61795 844.75341,273.08717 845.65421,274.54477 C 845.89451,274.93361 844.53541,275.99363 842.634,276.90036 C 840.7325,277.8071 839.1768,279.00625 839.1768,279.56515 C 839.1768,280.12405 838.7811,280.58133 838.2974,280.58133 C 837.456,280.58133 831.6173,285.62581 826.0583,291.15566 C 823.8462,293.35605 820.5359,300.77751 820.9331,302.64571 C 820.9991,302.95612 819.2313,304.75612 817.0047,306.64571 C 814.778,308.5353 811.7155,311.20633 810.1989,312.58133 C 807.4527,315.07128 804.2821,316.81348 796.6768,320.01162 C 791.8611,322.0367 782.3082,330.82887 778.6814,336.57399 C 777.2149,338.89719 774.647,341.32758 772.866,342.07804 C 771.1119,342.81716 768.1599,344.78396 766.306,346.4487 C 764.452,348.11344 761.6395,349.76007 760.056,350.10787 C 757.74665,350.82587 756.42395,352.05059 753.9512,352.30862 C 752.1793,352.43363 749.5927,353.37641 748.2032,354.40369 C 746.8137,355.43097 744.1996,357.03535 742.3941,357.96899 C 740.03485,360.45175 737.94668,361.83875 734.97921,363.86821 C 733.04986,365.63542 731.29254,367.13337 731.07405,367.19697 C 730.85557,367.26057 729.11374,367.65591 727.20331,368.07551 C 723.47283,368.89486 718.06246,372.04424 714.42681,375.5127 C 713.18931,376.6933 712.1625,377.30421 712.14501,376.87029 C 712.12751,376.43636 711.56501,376.79506 710.89501,377.66739 C 710.225,378.53972 707.69699,380.56472 705.27722,382.16739 C 699.17417,386.20956 698.89791,386.36872 696.92834,386.97721 C 695.96668,387.27431 694.07309,390.02001 692.72037,393.07876 C 690.13674,398.9208 688.59637,400.87254 686.153,401.4 C 685.3411,401.57527 682.52774,404.05027 679.90109,406.9 C 675.33786,411.8508 673.47411,416.04187 670.66793,427.66286 C 670.32508,429.0827 668.96212,431.41175 667.63914,432.83852 C 665.50969,435.13504 664.50135,435.42155 658.84999,435.33585 C 653.76882,435.2588 651.83433,435.68901 649.36932,437.44425 C 646.43323,439.53493 645.82901,439.59436 637.73513,438.58858 L 629.19788,437.5277 L 623.03035,440.80451 C 619.6382,442.60676 616.51129,444.75633 616.08164,445.58133 C 615.65199,446.40633 614.30348,449.19758 613.08496,451.78411 C 611.86644,454.37063 609.36362,457.94641 607.52314,459.73027 C 605.68266,461.51414 604.17681,463.39812 604.17681,463.9169 C 604.17681,464.43568 602.78777,467.11761 601.09006,469.87675 C 599.16722,473.00176 598.17008,475.76579 598.4456,477.20708 C 598.31242,479.37903 597.26418,480.15105 597.17681,482.86338 C 597.17681,485.28343 596.55604,489.32613 595.79732,491.84715 C 594.42404,496.41023 594.70281,499.99749 596.99565,507.26732 C 600.16978,517.33142 616.35212,544.53972 618.57396,543.00633 C 618.35051,543.41504 618.46435,545.13396 618.17681,546.10133 C 621.85285,551.75322 625.76227,555.84217 630.31751,560.74938 C 635.01791,565.81297 635.72051,566.36355 638.89348,569.48133 C 640.3288,570.89168 642.4298,573.09716 643.66985,573.94362 C 643.43736,574.73256 649.18992,581.31491 653.59769,585.91736 C 657.06299,589.53573 663.90065,598.19749 665.23893,600.66418 C 665.9602,601.99361 666.61306,605.10633 666.68973,607.58133 C 666.78364,610.61279 667.67106,613.30548 669.40905,615.83248 C 670.96643,618.09688 671.78124,620.37797 671.46487,621.5878 C 670.89922,623.75085 672.86531,626.89188 674.24944,626.03644 C 674.71475,625.74887 675.9715,626.06068 677.04222,626.72935 C 678.56899,627.68284 678.79885,628.44524 678.10765,630.26323 C 677.47882,631.9431 678.18281,632.64266 677.21316,634.03753 C 676.54847,634.83843 676.24858,635.88843 676.54673,636.37086 C 676.84489,636.85328 676.54613,637.26576 675.88282,637.28747 C 675.21952,637.30918 674.03185,637.49668 673.24356,637.70414 C 672.43201,637.91772 671.18963,636.83454 670.37941,635.20701 C 669.59242,633.62614 668.66238,632.772 668.31266,633.30894 C 665.91885,634.44623 663.6848,634.99589 659.64483,631.75213 C 658.81782,631.0881 653.07977,626.59508 650.42294,625.92826 C 649.09084,625.59392 646.06211,625.26659 643.69242,625.20085 C 641.32274,625.13511 639.58071,624.75702 639.82126,624.36065 C 631.33362,620.20073 622.16576,620.57044 613.17681,622.84086 C 611.25181,623.69798 609.45181,624.38718 609.17681,624.37242 C 608.90181,624.35765 607.10181,625.00365 605.17681,625.80797 C 603.25181,626.61229 601.45181,627.29872 601.17681,627.33338 C 598.49973,627.67077 595.01954,630.53434 593.1545,633.93432 C 589.97554,639.72957 588.19634,641.57783 585.77182,641.60357 C 584.61957,641.6158 582.55181,642.50579 581.17681,643.58133 C 577.71227,646.29133 576.13586,646.08666 570.47357,642.19169 C 563.73745,637.55806 555.79346,633.632 552.4028,633.26081 C 550.85375,633.09123 549.15671,632.69364 548.63158,632.37729 C 546.3721,631.01609 534.11388,628.39582 527.58537,627.87853 C 518.31653,627.14411 505.53427,627.33887 503.74184,629.1313 C 498.0765,629.69609 492.29011,633.68186 487.30692,638.08592 C 485.58536,640.04667 484.17584,642.19776 484.17467,642.86613 C 484.17349,643.53449 482.76139,646.75847 481.03667,650.03054 C 478.06437,655.66948 477.96306,656.22258 479.09416,660.63592 C 479.7505,663.19682 479.9795,666.59468 479.60305,668.18671 C 481.09276,672.80885 480.06182,674.63418 476.68864,683.58133 C 474.55312,692.34169 473.22611,695.79602 471.11833,698.08133 C 469.5965,699.73133 467.26113,702.9513 466.15484,705.34723 C 463.89382,710.24402 465.08419,709.22172 462.76205,713.09775 C 461.82981,716.81205 458.56471,717.66261 453.70784,715.45637 C 448.05673,712.88933 444.57247,713.12984 437.51219,716.57433 C 432.76032,718.89261 431.19257,720.34011 430.13401,722.82433 C 427.94066,727.97165 427.10718,727.20952 424.46175,729.60701 C 421.36514,732.63452 413.90555,736.52013 411.11464,736.55937 C 410.25545,736.57145 407.58747,737.53071 405.1858,738.69107 C 402.78414,739.85143 397.23663,741.84235 392.85801,743.11534 C 386.16178,745.06213 384.16763,746.16956 380.30701,750.08537 C 376.56344,753.88245 375.19823,754.6647 372.90294,754.32783 C 371.35514,754.10066 369.85279,754.29658 369.5644,754.76321 C 369.27601,755.22984 367.60832,756.26742 365.85843,757.06893 C 364.10854,757.87044 361.55181,759.43891 360.17681,760.55441 C 356.74978,763.33468 347.57565,766.75782 342.39241,767.1903 C 340.03599,767.38692 337.16892,768.05037 336.02116,768.66463 C 334.72681,769.35735 331.90136,769.52748 328.58105,769.11263 C 323.29634,768.45235 323.17065,768.49846 318.76689,772.71257 C 316.3134,775.06039 314.4708,777.24799 314.67222,777.5739 C 314.87364,777.89981 313.63699,778.27325 311.9241,778.40376 C 310.21121,778.53428 308.39012,778.85669 307.33959,778.83335 C 304.77952,778.77646 307.09375,779.5521 303.93868,779.02777 C 301.74944,778.66395 285.06658,776.33238 275.67681,776.42491 C 259.1141,776.58814 256.71686,776.71315 255.73636,777.46476 C 255.15361,777.91148 250.81618,779.46102 246.09763,780.9082 C 236.69612,783.79163 224.05141,789.33592 220.26521,792.23486 C 217.97842,793.98577 215.70132,796.20095 209.1156,803.08133 C 205.7209,806.62792 201.95592,814.75161 202.25959,817.87453 C 202.37762,819.08827 202.12684,820.88781 201.70232,821.87351 C 200.38187,824.93945 201.7444,833.53595 204.00566,836.40582 C 208.665,842.31921 212.26509,850.04849 211.96955,853.50403 C 211.61247,857.67905 210.83543,857.88036 205.49947,855.18028 z "
       style="fill:#57cc65;fill-opacity:1;stroke:none;stroke-opacity:1;display:inline"
       id="path5790" />
    <rect
       width="1139.9998"
       height="739.99994"
       x="-194.28571"
       y="172.36218"
       style="opacity:1;fill:none;fill-opacity:1;stroke:none;stroke-width:1;stroke-linejoin:miter;stroke-miterlimit:4;stroke-dasharray:none;stroke-dashoffset:5;stroke-opacity:1"
       id="rect3742" />
  </g>
  <path
     sodipodi:type="arc"
     style="opacity:1;fill:#57cc65;fill-opacity:1;stroke:none;stroke-width:1.60185492;stroke-linejoin:miter;stroke-miterlimit:4;stroke-dasharray:none;stroke-dashoffset:5;stroke-opacity:1"
     id="path1880"
     sodipodi:cx="1106.0742"
     sodipodi:cy="41.220158"
     sodipodi:rx="4.9071612"
     sodipodi:ry="7.8514581"
     d="M 1110.9814 41.220158 A 4.9071612 7.8514581 0 1 1  1101.1671,41.220158 A 4.9071612 7.8514581 0 1 1  1110.9814 41.220158 z"
     transform="matrix(0.234596,0.288496,-0.293711,0.236855,853.9254,-280.5307)" />
</svg>
