<?xml version="1.0" encoding="utf-8"?>
<!-- Svg Vector Icons : http://www.onlinewebfonts.com/icon -->
<!DOCTYPE svg PUBLIC "-//W3C//DTD SVG 1.1//EN" "http://www.w3.org/Graphics/SVG/1.1/DTD/svg11.dtd">
<svg version="1.1" xmlns="http://www.w3.org/2000/svg" xmlns:xlink="http://www.w3.org/1999/xlink" x="0px" y="0px" viewBox="0 0 1000 1000" enable-background="new 0 0 1000 1000" xml:space="preserve" fill="#f4f4f5">
<metadata> Svg Vector Icons : http://www.onlinewebfonts.com/icon </metadata>
<g><g transform="translate(0.000000,511.000000) scale(0.100000,-0.100000)"><path d="M9792.2,2687.4c-16.4-6.2-55.4-26.7-86.1-47.2c-28.7-22.6-71.7-39-94.3-39c-24.6,0-47.1-18.4-55.4-38.9c-12.3-38.9-80-61.5-219.4-69.7c-45.1-4.1-96.3-24.6-125-51.3c-26.6-24.6-65.6-45.1-86.1-45.1c-77.9,0-211.1-65.6-233.7-114.8c-12.3-28.7-38.9-49.2-63.5-49.2c-22.5,0-41-12.3-41-26.6c0-34.9-112.8-92.3-215.3-108.7c-45.1-8.2-96.3-26.6-116.8-43c-36.9-32.8-166-43-235.8-18.5c-30.8,10.2-47.1,6.2-47.1-8.2c0-12.3-49.2-73.8-106.6-135.3c-88.1-90.2-168.1-141.5-412-266.5c-412.1-209.1-756.4-317.7-1002.4-317.7c-166-2.1-192.7-8.2-342.4-79.9c-88.1-43.1-168.1-88.1-174.2-98.4c-18.4-30.8-202.9-88.2-338.3-106.6c-63.5-10.2-221.4-34.9-350.5-59.4c-260.4-47.2-639.6-57.4-822.1-22.6c-61.5,12.3-166,26.6-233.7,30.7c-67.6,6.1-168.1,20.5-221.4,32.8c-55.4,12.3-131.2,18.4-168.1,12.3c-36.9-6.2-112.7,2-168.1,18.4c-80,26.6-116.9,26.6-203,6.1c-59.4-12.3-133.2-18.4-164-12.3c-32.8,6.2-102.5,20.5-153.7,30.8c-53.3,10.2-159.9,55.4-235.7,100.5c-219.3,127.1-215.2,127.1-198.8-8.2c6.1-63.5,24.6-139.4,41-168.1c51.3-102.5,28.7-354.7-59.5-656C2814,178.2,2814,176.1,2676.7,88c-75.8-49.2-164-90.2-192.7-90.2c-30.7,0-100.5,22.6-157.9,51.3c-55.4,28.7-110.7,51.3-123,51.3c-10.2,0-45.1,16.4-73.8,38.9c-112.7,77.9-500.2,120.9-569.9,61.5c-51.3-43.1-176.3-80-227.5-67.6c-32.8,8.2-47.1,4.1-47.1-16.4c0-16.4-24.6-51.3-53.3-80c-28.7-26.6-79.9-106.6-114.8-176.3c-106.6-225.5-356.7-395.6-535-360.8c-98.4,18.5-155.8,53.3-297.3,178.3C212.6-258.5,147-211.3,136.7-217.5c-8.2-6.1-22.6-57.4-30.7-112.8c-12.3-90.2-8.2-114.8,36.9-180.4c110.7-170.2,143.5-254.2,131.2-352.6c-8.2-71.8-2.1-104.6,28.7-143.5c47.1-61.5,49.2-100.4,8.2-155.8c-26.7-38.9-24.6-47.1,30.7-100.4c34.9-32.8,61.5-69.7,61.5-84.1c0-12.3,43-45.1,98.4-71.7c104.5-53.3,98.4-41,153.7-340.3c18.5-102.5,30.8-129.2,59.5-129.2c20.5,0,47.1-18.4,61.5-41c14.3-22.6,41-41,59.4-41c16.4,0,53.3-24.6,82-53.3c57.4-61.5,151.7-114.8,170.1-96.3c24.6,24.6,291.1-61.5,391.6-127.1c131.2-86.1,494-207.1,528.9-178.4c14.4,12.3,53.3,24.6,86.1,28.7c55.4,6.1,63.5,16.4,79.9,102.5c18.5,94.3,20.5,94.3,86.1,84c51.3-8.2,71.8-2,82,22.5c6.1,18.5,28.7,32.8,51.3,32.8c20.5,0,45.1,14.4,53.3,30.8c22.5,38.9,149.6,20.5,149.6-20.5c0-16.4,34.9-55.4,77.9-88.1c63.5-51.3,94.3-61.5,159.9-57.4c45.1,4.1,102.5,16.4,127.1,30.8c90.2,47.2,188.6,20.5,188.6-53.3c0-43-8.2-49.2-53.3-43c-63.5,6.1-104.5-41-82-96.4c12.3-32.8,16.4-34.9,49.2-2.1c20.5,18.5,67.6,32.8,104.5,32.8c51.3,0,100.5,26.6,203,112.7c104.5,86.1,174.2,125.1,291.1,161.9c147.6,47.2,166,49.2,407.9,28.7c252.2-20.5,254.2-20.5,289.1,24.6c32.8,43.1,104.5,59.4,174.2,38.9c49.2-14.3,451,155.8,526.9,223.5c20.5,16.4,84,39,143.5,47.2c59.4,10.2,110.7,26.6,114.8,38.9c4.1,10.2,18.5,20.5,34.9,20.5c14.4,0,61.5,32.8,104.5,71.7c69.7,63.6,90.2,71.7,194.7,71.7c104.6,0,118.9,6.2,133.3,47.1c8.2,24.6,41,77.9,71.7,116.9c53.3,61.5,59.5,88.1,59.5,211.1c0,75.8,12.3,168.1,28.7,205c28.7,73.8,141.5,178.3,188.6,178.3c16.4,0,28.7,20.5,28.7,51.3c0,32.8,12.3,51.3,30.7,51.3c45.1,0,36.9,34.9-10.2,61.5c-30.8,16.4-39,34.9-30.8,63.6c10.3,30.8,0,45.1-49.2,61.5c-51.3,18.4-63.5,34.8-63.5,82c0,41,10.2,59.4,34.9,59.4c18.4,0,51.3,16.4,71.7,34.9c55.4,49.2,82,12.3,57.4-75.9c-10.3-36.9-16.4-71.7-12.3-77.9c6.2-4.1,36.9,12.3,71.7,39c59.4,43,65.6,43,100.4,12.3c43.1-39,86.1-45.1,86.1-14.4c0,12.3,12.3,20.5,26.7,20.5s53.3,28.7,86.1,61.5c61.5,63.6,129.1,77.9,168.1,38.9c18.4-18.4,38.9-12.3,84,24.6c51.3,41,59.5,63.5,59.5,139.4c-2.1,51.2,8.2,94.3,20.5,98.4c12.3,4.1,55.4-30.8,94.3-77.9c75.9-86.1,75.9-92.3,16.4-182.4c-16.4-24.6-24.6-24.6-59.4,6.2c-36.9,32.8-41,32.8-94.3-16.4c-61.5-55.4-96.3-63.6-157.8-28.7c-32.8,16.4-51.3,14.3-82-14.4c-53.3-47.1-49.2-61.5,20.5-86.1c45.1-16.4,63.5-39,77.9-100.5c12.3-55.3,28.7-80,61.5-84c55.4-8.2,75.8-80,30.8-104.5c-18.5-10.3-28.7-26.7-20.5-34.9c14.4-14.3,155.8-34.8,231.7-32.8c57.4,0,219.3,43,246,65.6c10.2,8.2,61.5,10.3,110.7,0c51.3-8.2,102.5-12.3,114.8-8.2c12.3,6.1,71.7-16.4,133.3-47.2c112.7-55.3,205-77.9,205-51.3c0,8.2-18.5,26.7-43,41c-26.7,18.5-36.9,39-28.7,63.5c16.4,55.4-131.2,260.4-270.6,369c-61.5,51.3-143.5,135.3-178.4,186.6C7192.8-59.6,7078,77.7,7037,92.1c-28.7,10.2-32.8,16.4-12.3,28.7c22.5,14.4,22.5,32.8,4.1,96.4c-36.9,123,8.2,297.2,123,471.5c112.7,168.1,155.8,190.6,348.5,176.3c166-14.3,213.2,10.3,241.9,118.9c49.2,176.3,334.1,412.1,705.2,578.1c168.1,75.9,256.3,131.2,340.3,209.1c63.5,59.4,155.8,125,205,147.6c96.3,45.1,184.5,116.8,184.5,151.7c0,12.3,22.5,51.3,49.2,86.1c51.3,67.7,328,213.2,571.9,301.4c41,14.4,55.4,32.8,55.4,75.9c0,32.8,12.3,82,28.7,110.7c26.7,51.3,24.6,53.3-16.4,53.3C9843.4,2697.6,9808.6,2693.5,9792.2,2687.4z"/><path d="M6348.2-629.5c0-16.4,10.3-24.6,20.5-18.4c12.3,6.1,20.5,20.5,20.5,32.8c0,10.3-8.2,18.4-20.5,18.4C6358.4-596.7,6348.2-611.1,6348.2-629.5z"/><path d="M6452.7-732c24.6-30.8,110.7-41,92.3-10.2c-6.2,10.2-34.8,22.6-63.5,26.7C6440.4-707.4,6434.3-709.5,6452.7-732z"/><path d="M6368.7-801.7c0-10.2,10.3-20.5,22.5-20.5c10.2,0,14.4,10.3,8.2,20.5c-6.1,12.3-16.4,20.5-22.5,20.5C6372.8-781.2,6368.7-789.4,6368.7-801.7z"/></g></g>
</svg>